<svg width="152" height="32" viewBox="0 0 152 32" fill="none" xmlns="http://www.w3.org/2000/svg">
<path d="M146.983 24.2086C146.911 24.2086 146.844 24.1718 146.804 24.1109L142.944 18.1035C142.858 17.9699 142.662 17.9741 142.582 18.1114L139.089 24.103C139.051 24.1684 138.981 24.2086 138.905 24.2086H135.11C134.943 24.2086 134.841 24.0249 134.929 23.8832L140.643 14.7408C140.687 14.6709 140.686 14.5821 140.642 14.5129L134.856 5.5353C134.764 5.39378 134.866 5.20741 135.034 5.20741H138.911C138.984 5.20741 139.051 5.24408 139.09 5.30477L142.95 11.2858C143.036 11.4193 143.232 11.4147 143.312 11.2774L146.778 5.31322C146.817 5.24772 146.887 5.20741 146.962 5.20741H150.758C150.925 5.20741 151.027 5.39101 150.938 5.53267L145.251 14.6482C145.207 14.718 145.208 14.8066 145.252 14.8758L151.039 23.881C151.13 24.0225 151.029 24.2086 150.86 24.2086H146.983Z" fill="url(#paint0_linear_336_819)"/>
<path d="M129.844 7.33075C129.173 7.33075 128.61 7.12204 128.157 6.70463C127.721 6.26907 127.503 5.7337 127.503 5.09851C127.503 4.46332 127.721 3.93702 128.157 3.51962C128.61 3.08406 129.173 2.86628 129.844 2.86628C130.516 2.86628 131.069 3.08406 131.505 3.51962C131.959 3.93702 132.186 4.46332 132.186 5.09851C132.186 5.7337 131.959 6.26907 131.505 6.70463C131.069 7.12204 130.516 7.33075 129.844 7.33075ZM131.51 9.12742C131.628 9.12742 131.723 9.22264 131.723 9.34009V23.9959C131.723 24.1134 131.628 24.2086 131.51 24.2086H128.124C128.007 24.2086 127.912 24.1134 127.912 23.9959V9.34009C127.912 9.22264 128.007 9.12742 128.124 9.12742H131.51Z" fill="url(#paint1_linear_336_819)"/>
<path d="M122.008 12.258C121.89 12.258 121.795 12.3532 121.795 12.4707V19.5536C121.795 20.0617 121.913 20.4338 122.149 20.6697C122.403 20.8875 122.82 20.9964 123.401 20.9964H124.958C125.075 20.9964 125.171 21.0916 125.171 21.209V23.9959C125.171 24.1134 125.075 24.2086 124.958 24.2086H122.775C119.563 24.2086 117.957 22.6479 117.957 19.5264V12.4707C117.957 12.3532 117.861 12.258 117.744 12.258H116.373C116.255 12.258 116.16 12.1628 116.16 12.0453V9.3401C116.16 9.22264 116.255 9.12743 116.373 9.12743H117.744C117.861 9.12743 117.957 9.03221 117.957 8.91475V5.61064C117.957 5.49318 118.052 5.39796 118.169 5.39796H121.582C121.7 5.39796 121.795 5.49318 121.795 5.61064V8.91475C121.795 9.03221 121.89 9.12743 122.008 9.12743H124.958C125.075 9.12743 125.171 9.22264 125.171 9.3401V12.0453C125.171 12.1628 125.075 12.258 124.958 12.258H122.008Z" fill="url(#paint2_linear_336_819)"/>
<path d="M114.983 9.12742C115.135 9.12742 115.238 9.28234 115.179 9.4225L106.021 31.2106C105.988 31.2895 105.91 31.3409 105.825 31.3409H102.234C102.081 31.3409 101.978 31.1838 102.039 31.0434L105.141 23.91C105.164 23.8572 105.164 23.7975 105.142 23.7443L99.2539 9.42096C99.1963 9.281 99.2992 9.12742 99.4506 9.12742H103.259C103.348 9.12742 103.428 9.18287 103.458 9.26638L107.102 19.1263C107.17 19.3112 107.431 19.3118 107.5 19.1272L111.195 9.26548C111.227 9.18244 111.306 9.12742 111.395 9.12742H114.983Z" fill="url(#paint3_linear_336_819)"/>
<path d="M96.8974 4.06407C97.0149 4.06407 97.1101 4.15929 97.1101 4.27675V23.9959C97.1101 24.1134 97.0149 24.2086 96.8974 24.2086H93.5116C93.3942 24.2086 93.299 24.1134 93.299 23.9959V4.27675C93.299 4.15929 93.3942 4.06407 93.5116 4.06407H96.8974Z" fill="url(#paint4_linear_336_819)"/>
<path d="M73.8694 16.6136C73.8694 15.0891 74.1688 13.7371 74.7677 12.5574C75.3848 11.3778 76.2105 10.4704 77.245 9.83521C78.2976 9.20002 79.4681 8.88242 80.7566 8.88242C81.8818 8.88242 82.8618 9.10928 83.6967 9.56298C84.3358 9.90296 84.8782 10.3092 85.3237 10.7816C85.4646 10.931 85.7383 10.8361 85.7383 10.6308V9.3401C85.7383 9.22264 85.8335 9.12742 85.951 9.12742H89.364C89.4815 9.12742 89.5767 9.22264 89.5767 9.3401V23.9959C89.5767 24.1134 89.4815 24.2086 89.364 24.2086H85.951C85.8335 24.2086 85.7383 24.1134 85.7383 23.9959V22.6844C85.7383 22.4759 85.4547 22.3815 85.3141 22.5354C84.8788 23.0122 84.3396 23.4248 83.6967 23.773C82.8437 24.2268 81.8546 24.4536 80.7294 24.4536C79.459 24.4536 78.2976 24.1269 77.245 23.4736C76.2105 22.8203 75.3848 21.9038 74.7677 20.7241C74.1688 19.5264 73.8694 18.1562 73.8694 16.6136ZM85.7383 16.668C85.7383 15.7425 85.5568 14.953 85.1939 14.2997C84.8309 13.6282 84.3409 13.12 83.7239 12.7752C83.1068 12.4123 82.4444 12.2308 81.7366 12.2308C81.0289 12.2308 80.3755 12.4032 79.7766 12.748C79.1777 13.0928 78.6877 13.601 78.3066 14.2724C77.9437 14.9258 77.7622 15.7062 77.7622 16.6136C77.7622 17.521 77.9437 18.3195 78.3066 19.0091C78.6877 19.6806 79.1777 20.1978 79.7766 20.5608C80.3937 20.9238 81.047 21.1053 81.7366 21.1053C82.4444 21.1053 83.1068 20.9328 83.7239 20.588C84.3409 20.2251 84.8309 19.7169 85.1939 19.0636C85.5568 18.3921 85.7383 17.5936 85.7383 16.668Z" fill="url(#paint5_linear_336_819)"/>
<path d="M65.2091 8.90964C67.0057 8.90964 68.4576 9.48131 69.5646 10.6246C70.6717 11.7498 71.2252 13.3287 71.2252 15.3613V23.9959C71.2252 24.1134 71.13 24.2086 71.0125 24.2086H67.6268C67.5093 24.2086 67.4141 24.1134 67.4141 23.9959V15.8786C67.4141 14.6808 67.1146 13.7643 66.5157 13.1291C65.9168 12.4758 65.1002 12.1491 64.0657 12.1491C63.0131 12.1491 62.1783 12.4758 61.5613 13.1291C60.9624 13.7643 60.6629 14.6808 60.6629 15.8786V23.9959C60.6629 24.1134 60.5677 24.2086 60.4503 24.2086H57.0645C56.947 24.2086 56.8518 24.1134 56.8518 23.9959V9.34009C56.8518 9.22263 56.947 9.12742 57.0645 9.12742H60.4503C60.5677 9.12742 60.6629 9.22263 60.6629 9.34009V10.3859C60.6629 10.5884 60.9293 10.6842 61.072 10.5405C61.5036 10.1061 62.0115 9.75302 62.5957 9.48131C63.3942 9.10019 64.2654 8.90964 65.2091 8.90964Z" fill="url(#paint6_linear_336_819)"/>
<path d="M49.0662 20.7312C49.0365 20.6455 48.9559 20.588 48.8652 20.588H41.6003C41.5097 20.588 41.429 20.6455 41.3993 20.7312L40.2461 24.0655C40.2165 24.1511 40.1358 24.2086 40.0452 24.2086H36.4973C36.3501 24.2086 36.2474 24.0626 36.2971 23.9241L42.9772 5.32099C43.0075 5.23653 43.0876 5.18019 43.1774 5.18019H47.3154C47.4051 5.18019 47.4852 5.23653 47.5156 5.32099L54.1956 23.9241C54.2454 24.0626 54.1427 24.2086 53.9955 24.2086H50.4204C50.3297 24.2086 50.249 24.1511 50.2194 24.0655L49.0662 20.7312ZM47.6836 17.5391C47.8298 17.5391 47.9324 17.3951 47.8846 17.2569L45.4338 10.1713C45.3677 9.98042 45.0978 9.98042 45.0318 10.1713L42.5809 17.2569C42.5331 17.3951 42.6357 17.5391 42.7819 17.5391H47.6836Z" fill="url(#paint7_linear_336_819)"/>
<g filter="url(#filter0_d_336_819)">
<path d="M27.0752 7.15986C28.6396 9.50117 29.4746 12.2538 29.4746 15.0697V25.7476C29.4746 27.7134 27.881 29.307 25.9153 29.307H23.2458C22.7543 29.307 22.3559 28.9086 22.3559 28.4171L22.3559 15.0697C22.3559 13.6617 21.9384 12.2854 21.1562 11.1148C20.374 9.94411 19.2622 9.0317 17.9615 8.49291C16.6607 7.95411 15.2294 7.81314 13.8485 8.08781C12.4676 8.36249 11.1992 9.04047 10.2037 10.036C9.20809 11.0316 8.53011 12.3 8.25543 13.6809C7.98076 15.0618 8.12173 16.4931 8.66052 17.7939C9.19932 19.0946 10.1117 20.2064 11.2824 20.9886C12.2054 21.6054 13.2563 21.9954 14.3498 22.1328C14.8374 22.194 15.2373 22.5867 15.2373 23.0781V28.4171C15.2373 28.9086 14.8385 29.3099 14.348 29.2792C11.8448 29.1225 9.42162 28.3068 7.32748 26.9075C4.98617 25.3431 3.16134 23.1196 2.08376 20.518C1.00617 17.9165 0.724223 15.0539 1.27357 12.2921C1.82292 9.53035 3.17889 6.99351 5.17001 5.00239C7.16113 3.01127 9.69797 1.6553 12.4597 1.10595C15.2215 0.556605 18.0841 0.838551 20.6857 1.91614C23.2872 2.99372 25.5107 4.81855 27.0752 7.15986Z" fill="url(#paint8_linear_336_819)"/>
<path d="M18.7966 21.4765C19.7795 21.4765 20.5763 22.2732 20.5763 23.2561V27.5273C20.5763 28.5102 19.7795 29.307 18.7966 29.307C17.8137 29.307 17.017 28.5102 17.017 27.5273V23.2561C17.017 22.2732 17.8137 21.4765 18.7966 21.4765Z" fill="url(#paint9_linear_336_819)"/>
</g>
<defs>
<filter id="filter0_d_336_819" x="0.644068" y="0.47645" width="29.1864" height="29.1864" filterUnits="userSpaceOnUse" color-interpolation-filters="sRGB">
<feFlood flood-opacity="0" result="BackgroundImageFix"/>
<feColorMatrix in="SourceAlpha" type="matrix" values="0 0 0 0 0 0 0 0 0 0 0 0 0 0 0 0 0 0 127 0" result="hardAlpha"/>
<feOffset/>
<feGaussianBlur stdDeviation="0.177966"/>
<feComposite in2="hardAlpha" operator="out"/>
<feColorMatrix type="matrix" values="0 0 0 0 0 0 0 0 0 0 0 0 0 0 0 0 0 0 0.25 0"/>
<feBlend mode="normal" in2="BackgroundImageFix" result="effect1_dropShadow_336_819"/>
<feBlend mode="normal" in="SourceGraphic" in2="effect1_dropShadow_336_819" result="shape"/>
</filter>
<linearGradient id="paint0_linear_336_819" x1="142.947" y1="5.20741" x2="142.947" y2="24.2086" gradientUnits="userSpaceOnUse">
<stop stop-color="white"/>
<stop offset="1" stop-color="#D9D9D9"/>
</linearGradient>
<linearGradient id="paint1_linear_336_819" x1="93.8796" y1="-5.77852" x2="93.8796" y2="35.055" gradientUnits="userSpaceOnUse">
<stop stop-color="white"/>
<stop offset="1" stop-color="#D9D9D9"/>
</linearGradient>
<linearGradient id="paint2_linear_336_819" x1="93.8797" y1="-5.77851" x2="93.8797" y2="35.055" gradientUnits="userSpaceOnUse">
<stop stop-color="white"/>
<stop offset="1" stop-color="#D9D9D9"/>
</linearGradient>
<linearGradient id="paint3_linear_336_819" x1="93.8796" y1="-5.77852" x2="93.8796" y2="35.055" gradientUnits="userSpaceOnUse">
<stop stop-color="white"/>
<stop offset="1" stop-color="#D9D9D9"/>
</linearGradient>
<linearGradient id="paint4_linear_336_819" x1="93.8796" y1="-5.77851" x2="93.8796" y2="35.055" gradientUnits="userSpaceOnUse">
<stop stop-color="white"/>
<stop offset="1" stop-color="#D9D9D9"/>
</linearGradient>
<linearGradient id="paint5_linear_336_819" x1="93.8796" y1="-5.7785" x2="93.8796" y2="35.055" gradientUnits="userSpaceOnUse">
<stop stop-color="white"/>
<stop offset="1" stop-color="#D9D9D9"/>
</linearGradient>
<linearGradient id="paint6_linear_336_819" x1="93.8796" y1="-5.77851" x2="93.8796" y2="35.055" gradientUnits="userSpaceOnUse">
<stop stop-color="white"/>
<stop offset="1" stop-color="#D9D9D9"/>
</linearGradient>
<linearGradient id="paint7_linear_336_819" x1="93.8796" y1="-5.77851" x2="93.8796" y2="35.055" gradientUnits="userSpaceOnUse">
<stop stop-color="white"/>
<stop offset="1" stop-color="#D9D9D9"/>
</linearGradient>
<linearGradient id="paint8_linear_336_819" x1="15.2373" y1="0.832382" x2="15.2373" y2="29.307" gradientUnits="userSpaceOnUse">
<stop stop-color="#337AFF"/>
<stop offset="1" stop-color="#3074F2"/>
</linearGradient>
<linearGradient id="paint9_linear_336_819" x1="15.2373" y1="0.832382" x2="15.2373" y2="29.307" gradientUnits="userSpaceOnUse">
<stop stop-color="#337AFF"/>
<stop offset="1" stop-color="#3074F2"/>
</linearGradient>
</defs>
</svg>
